<svg xmlns="http://www.w3.org/2000/svg" height="24px" viewBox="0 -960 960 960" width="24px" fill="#1f1f1f"><path d="M485.5-514.5Q500-529 500-550t-14.5-35.5Q471-600 450-600t-35.5 14.5Q400-571 400-550t14.5 35.5Q429-500 450-500t35.5-14.5ZM457-320l223-223-57-57-223 223 57 57Zm208.5-14.5Q680-349 680-370t-14.5-35.5Q651-420 630-420t-35.5 14.5Q580-391 580-370t14.5 35.5Q609-320 630-320t35.5-14.5ZM760-200H320q-33 0-56.5-23.5T240-280v-560q0-33 23.5-56.5T320-920h280l240 240v400q0 33-23.5 56.5T760-200ZM560-640v-200H320v560h440v-360H560ZM160-40q-33 0-56.5-23.5T80-120v-560h80v560h440v80H160Zm160-800v200-200 560-560Z"/></svg>